<svg xmlns="http://www.w3.org/2000/svg" width="780" height="1688" viewBox="0 0 390 844"><rect width="390" height="844" fill="#1A1714"/><text x="26" y="26" font-family="DM Sans" font-size="13.5" fill="#FFFFFF" font-weight="700" letter-spacing="0" text-anchor="start" font-style="normal" opacity="1">9:41</text><rect x="300.0" y="22.0" width="3" height="5.0" rx="1" fill="#FFFFFF" opacity="1"/><rect x="304.5" y="19.8" width="3" height="7.2" rx="1" fill="#FFFFFF" opacity="1"/><rect x="309.0" y="17.6" width="3" height="9.4" rx="1" fill="#FFFFFF" opacity="1"/><rect x="313.5" y="15.399999999999999" width="3" height="11.600000000000001" rx="1" fill="#FFFFFF" opacity="1"/><path d="M 323 20 q 6 -5 12 0 M 325.5 23 q 3.5 -3 7 0" fill="None" stroke="#FFFFFF" stroke-width="1.4" opacity="1" stroke-linecap="round" stroke-linejoin="round"/><path d="M 328.8 26.5 l 0.7 0 l 0.7 -0.001" stroke="#FFFFFF" stroke-width="2"/><rect x="343" y="17" width="20" height="10" rx="2.5" fill="none" stroke="#FFFFFF" stroke-width="1" opacity="0.5"/><rect x="345" y="19" width="14" height="6" rx="1" fill="#FFFFFF" opacity="1"/><rect x="364.5" y="20" width="1.6" height="4" rx="0.8" fill="#FFFFFF" opacity="0.5"/><g transform="translate(24,49) scale(1.0)"><path d="M 1 4 L 6.5 20 L 13 8 L 19.5 20 L 25 4" fill="None" stroke="#C9A96E" stroke-width="1.6" opacity="1" stroke-linecap="round" stroke-linejoin="round"/><path d="M 13 8 L 13 3" fill="None" stroke="#C9A96E" stroke-width="1.1" opacity="0.5" stroke-linecap="round" stroke-linejoin="round"/></g><line x1="60" y1="48" x2="60" y2="70" stroke="#C9A96E" stroke-width="1" opacity="0.35"/><text x="70" y="63" font-family="DM Sans" font-size="10.5" fill="#C9A96E" font-weight="600" letter-spacing="2.2" text-anchor="start" font-style="normal" opacity="1">WINGMAN</text><circle cx="366" cy="59" r="14" fill="none" stroke="#C9A96E" stroke-width="1" opacity="0.35"/><text x="366" y="63.5" font-family="EB Garamond" font-size="13" fill="#C9A96E" font-weight="400" letter-spacing="0" text-anchor="middle" font-style="normal" opacity="1">M</text><text x="24" y="116" font-family="Playfair Display" font-size="25" fill="#FFFFFF" font-weight="500" letter-spacing="0" text-anchor="start" font-style="normal" opacity="1">Good morning, Maddie.</text><text x="24" y="141" font-family="EB Garamond" font-size="16" fill="#8A7F70" font-weight="400" letter-spacing="0" text-anchor="start" font-style="italic" opacity="1">Three trips watched. Nothing needs you.</text><text x="24" y="178" font-family="DM Sans" font-size="9.5" fill="#C9A96E" font-weight="600" letter-spacing="2.2" text-anchor="start" font-style="normal" opacity="1">NEXT UP</text><line x1="96" y1="174.5" x2="366" y2="174.5" stroke="#C9A96E" stroke-width="1" opacity="0.22"/><rect x="24" y="192" width="342" height="196" rx="16" fill="#F5EDD8" opacity="1"/><rect x="24" y="192" width="342" height="196" rx="16" fill="none" stroke="#C9A96E" stroke-width="1" opacity="0.35"/><g clip-path="url(#cp1)"><clipPath id="cp1"><rect x="24" y="192" width="342" height="196" rx="16"/></clipPath><g transform="translate(305,244) scale(1.05)" opacity="0.2"><path d="M -30 46 L 30 46" fill="None" stroke="#8A6B3A" stroke-width="1.1" opacity="1" stroke-linecap="round" stroke-linejoin="round"/><path d="M -22 46 L -22 30 M 22 46 L 22 30" fill="None" stroke="#8A6B3A" stroke-width="1.1" opacity="1" stroke-linecap="round" stroke-linejoin="round"/><path d="M -26 30 L 26 30 M -21 30 L -21 18 M 21 30 L 21 18" fill="None" stroke="#8A6B3A" stroke-width="1.1" opacity="1" stroke-linecap="round" stroke-linejoin="round"/><path d="M -30 30 Q 0 22 30 30" fill="None" stroke="#8A6B3A" stroke-width="1.2" opacity="1" stroke-linecap="round" stroke-linejoin="round"/><path d="M -24 18 L 24 18 M -16 18 L -16 8 M 16 18 L 16 8" fill="None" stroke="#8A6B3A" stroke-width="1.1" opacity="1" stroke-linecap="round" stroke-linejoin="round"/><path d="M -27 18 Q 0 10 27 18" fill="None" stroke="#8A6B3A" stroke-width="1.2" opacity="1" stroke-linecap="round" stroke-linejoin="round"/><path d="M -18 8 L 18 8" fill="None" stroke="#8A6B3A" stroke-width="1.1" opacity="1" stroke-linecap="round" stroke-linejoin="round"/><path d="M -20 8 Q 0 0 20 8" fill="None" stroke="#8A6B3A" stroke-width="1.2" opacity="1" stroke-linecap="round" stroke-linejoin="round"/><path d="M 0 0 L 0 -8 M -3 -5 L 3 -5" fill="None" stroke="#8A6B3A" stroke-width="1.1" opacity="1" stroke-linecap="round" stroke-linejoin="round"/><path d="M -12 40 L -12 46 M 12 40 L 12 46 M 0 38 L 0 46" fill="None" stroke="#8A6B3A" stroke-width="0.9" opacity="0.6" stroke-linecap="round" stroke-linejoin="round"/></g></g><text x="44" y="222" font-family="DM Sans" font-size="9" fill="#6B5F50" font-weight="600" letter-spacing="2.2" text-anchor="start" font-style="normal" opacity="1">FLIGHT TO KYOTO</text><text x="44" y="264" font-family="Playfair Display" font-size="40" fill="#1A1510" font-weight="500" letter-spacing="0" text-anchor="start" font-style="normal" opacity="1">2h 14m</text><text x="44" y="289" font-family="EB Garamond" font-size="15" fill="#6B5F50" font-weight="400" letter-spacing="0" text-anchor="start" font-style="italic" opacity="1">until departure</text><line x1="44" y1="309" x2="326" y2="309" stroke="#C9A96E" stroke-width="1" opacity="0.45"/><text x="44" y="332" font-family="DM Sans" font-size="13.5" fill="#1A1510" font-weight="700" letter-spacing="0" text-anchor="start" font-style="normal" opacity="1">JL 623</text><text x="44" y="351" font-family="DM Sans" font-size="12" fill="#6B5F50" font-weight="400" letter-spacing="0" text-anchor="start" font-style="normal" opacity="1">11:40 AM  ·  SFO → NRT  ·  Gate C14</text><circle cx="305" cy="328" r="3.2" fill="#2DB896" opacity="1"/><text x="316" y="332" font-family="DM Sans" font-size="9.5" fill="#1F7A63" font-weight="700" letter-spacing="1.2" text-anchor="end" font-style="normal" opacity="1">ON TIME</text><text x="326" y="351" font-family="DM Sans" font-size="10.5" fill="#8A6B3A" font-weight="600" letter-spacing="0" text-anchor="end" font-style="normal" opacity="1">Everything downstream is watched →</text><text x="24" y="428" font-family="DM Sans" font-size="9.5" fill="#C9A96E" font-weight="600" letter-spacing="2.2" text-anchor="start" font-style="normal" opacity="1">ALSO WATCHING</text><line x1="130" y1="424.5" x2="366" y2="424.5" stroke="#C9A96E" stroke-width="1" opacity="0.22"/><rect x="24" y="444" width="342" height="92" rx="14" fill="#221E1A" opacity="1"/><rect x="24" y="444" width="342" height="92" rx="14" fill="none" stroke="#2E2A24" stroke-width="1" opacity="1"/><g clip-path="url(#c444)"><clipPath id="c444"><rect x="24" y="444" width="342" height="92" rx="14"/></clipPath><g transform="translate(322,474) scale(0.72)" opacity="0.3"><path d="M -10 44 Q -14 20 -20 6" fill="None" stroke="#C9A96E" stroke-width="1.3" opacity="1" stroke-linecap="round" stroke-linejoin="round"/><path d="M -20 6 Q -32 0 -36 8 M -20 6 Q -30 -6 -22 -10 M -20 6 Q -8 -4 -4 4 M -20 6 Q -12 2 -6 12" fill="None" stroke="#C9A96E" stroke-width="1.1" opacity="1" stroke-linecap="round" stroke-linejoin="round"/><path d="M 16 44 Q 18 26 22 14" fill="None" stroke="#C9A96E" stroke-width="1.2" opacity="1" stroke-linecap="round" stroke-linejoin="round"/><path d="M 22 14 Q 12 8 8 15 M 22 14 Q 18 4 26 2 M 22 14 Q 32 8 34 16" fill="None" stroke="#C9A96E" stroke-width="1" opacity="1" stroke-linecap="round" stroke-linejoin="round"/><path d="M -34 44 L 34 44" fill="None" stroke="#C9A96E" stroke-width="1.1" opacity="1" stroke-linecap="round" stroke-linejoin="round"/><path d="M -30 50 Q -18 45 -6 50 Q 6 55 18 50 Q 26 47 32 50" fill="None" stroke="#C9A96E" stroke-width="0.9" opacity="0.6" stroke-linecap="round" stroke-linejoin="round"/></g></g><text x="42" y="478" font-family="Playfair Display" font-size="18" fill="#FFFFFF" font-weight="500" letter-spacing="0" text-anchor="start" font-style="normal" opacity="1">Bali Escape</text><text x="42" y="499" font-family="DM Sans" font-size="11.5" fill="#8A7F70" font-weight="400" letter-spacing="0" text-anchor="start" font-style="normal" opacity="1">14–22 Aug  ·  Aman Villas  ·  4 legs</text><circle cx="45" cy="520" r="2.8" fill="#2DB896" opacity="1"/><text x="55" y="523" font-family="DM Sans" font-size="10.5" fill="#2DB896" font-weight="600" letter-spacing="0" text-anchor="start" font-style="normal" opacity="1">All confirmed</text><rect x="24" y="548" width="342" height="92" rx="14" fill="#221E1A" opacity="1"/><rect x="24" y="548" width="342" height="92" rx="14" fill="none" stroke="#2E2A24" stroke-width="1" opacity="1"/><g clip-path="url(#c548)"><clipPath id="c548"><rect x="24" y="548" width="342" height="92" rx="14"/></clipPath><g transform="translate(322,578) scale(0.72)" opacity="0.3"><path d="M -34 40 L -12 4 L 2 24 L 14 8 L 34 40 Z" fill="None" stroke="#C9A96E" stroke-width="1.2" opacity="1" stroke-linecap="round" stroke-linejoin="round"/><path d="M -18 14 L -14 10 L -10 14 L -6 10 L -3 13" fill="None" stroke="#C9A96E" stroke-width="1" opacity="1" stroke-linecap="round" stroke-linejoin="round"/><path d="M 8 16 L 11 13 L 14 16 L 17 13 L 20 17" fill="None" stroke="#C9A96E" stroke-width="1" opacity="1" stroke-linecap="round" stroke-linejoin="round"/><path d="M -34 40 L 34 40" fill="None" stroke="#C9A96E" stroke-width="1.1" opacity="1" stroke-linecap="round" stroke-linejoin="round"/><path d="M -24 46 Q 0 40 24 46" fill="None" stroke="#C9A96E" stroke-width="0.9" opacity="0.55" stroke-linecap="round" stroke-linejoin="round"/><circle cx="20" cy="-6" r="5" fill="none" stroke="#C9A96E" stroke-width="1" opacity="0.5"/></g></g><text x="42" y="582" font-family="Playfair Display" font-size="18" fill="#FFFFFF" font-weight="500" letter-spacing="0" text-anchor="start" font-style="normal" opacity="1">Swiss Alps Retreat</text><text x="42" y="603" font-family="DM Sans" font-size="11.5" fill="#8A7F70" font-weight="400" letter-spacing="0" text-anchor="start" font-style="normal" opacity="1">3–9 Sep  ·  Aman Le Mélézin  ·  6 legs</text><circle cx="45" cy="624" r="2.8" fill="#D4902A" opacity="1"/><text x="55" y="627" font-family="DM Sans" font-size="10.5" fill="#D4902A" font-weight="600" letter-spacing="0" text-anchor="start" font-style="normal" opacity="1">Awaiting rail confirmation</text><rect x="24" y="660" width="342" height="52" rx="26" fill="#2A2520" opacity="1"/><rect x="24" y="660" width="342" height="52" rx="26" fill="none" stroke="#C9A96E" stroke-width="1" opacity="0.22"/><g transform="translate(42,675) scale(0.8461538461538461)"><path d="M 1 4 L 6.5 20 L 13 8 L 19.5 20 L 25 4" fill="None" stroke="#C9A96E" stroke-width="1.6" opacity="1" stroke-linecap="round" stroke-linejoin="round"/><path d="M 13 8 L 13 3" fill="None" stroke="#C9A96E" stroke-width="1.1" opacity="0.5" stroke-linecap="round" stroke-linejoin="round"/></g><text x="78" y="691" font-family="EB Garamond" font-size="16" fill="#8A7F70" font-weight="400" letter-spacing="0" text-anchor="start" font-style="italic" opacity="1">Ask Wingman anything…</text><path d="M 340 686 L 348 686 M 344.5 682 L 348.5 686 L 344.5 690" fill="None" stroke="#C9A96E" stroke-width="1.4" opacity="1" stroke-linecap="round" stroke-linejoin="round"/><rect x="0" y="760" width="390" height="84" rx="0" fill="#16130F" opacity="1"/><line x1="0" y1="760" x2="390" y2="760" stroke="#2E2A24" stroke-width="1" opacity="1"/><g transform="translate(48.75,787)"><path d="M -7 1 L 0 -6 L 7 1 M -4.5 -0.5 L -4.5 6 L 4.5 6 L 4.5 -0.5" fill="None" stroke="#C9A96E" stroke-width="1.4" opacity="1" stroke-linecap="round" stroke-linejoin="round"/></g><text x="48.75" y="810" font-family="DM Sans" font-size="8.6" fill="#C9A96E" font-weight="600" letter-spacing="1.4" text-anchor="middle" font-style="normal" opacity="1">HOME</text><g transform="translate(146.25,787)"><path d="M 0 -6.5 A 6.5 6.5 0 1 1 0 6.5 A 6.5 6.5 0 1 1 0 -6.5 M -6.5 0 L 6.5 0 M 0 -6.5 Q 3.4 0 0 6.5 Q -3.4 0 0 -6.5" fill="None" stroke="#6B6053" stroke-width="1.4" opacity="1" stroke-linecap="round" stroke-linejoin="round"/></g><text x="146.25" y="810" font-family="DM Sans" font-size="8.6" fill="#6B6053" font-weight="600" letter-spacing="1.4" text-anchor="middle" font-style="normal" opacity="1">TRIPS</text><g transform="translate(243.75,787)"><path d="M -5 3 L 5 3 Q 4 3 4 -1 A 4 4 0 0 0 -4 -1 Q -4 3 -5 3 M -1.6 5.2 A 1.7 1.7 0 0 0 1.6 5.2" fill="None" stroke="#6B6053" stroke-width="1.4" opacity="1" stroke-linecap="round" stroke-linejoin="round"/></g><text x="243.75" y="810" font-family="DM Sans" font-size="8.6" fill="#6B6053" font-weight="600" letter-spacing="1.4" text-anchor="middle" font-style="normal" opacity="1">ALERTS</text><g transform="translate(341.25,787)"><path d="M -6 5 L -6 -1 M -2 5 L -2 -5 M 2 5 L 2 -3 M 6 5 L 6 -6" fill="None" stroke="#6B6053" stroke-width="1.4" opacity="1" stroke-linecap="round" stroke-linejoin="round"/></g><text x="341.25" y="810" font-family="DM Sans" font-size="8.6" fill="#6B6053" font-weight="600" letter-spacing="1.4" text-anchor="middle" font-style="normal" opacity="1">INSIGHTS</text><rect x="128.0" y="833" width="134" height="4.5" rx="2.5" fill="#FFFFFF" opacity="0.25"/></svg>